<svg xmlns="http://www.w3.org/2000/svg" width="200" height="200" viewBox="0 0 200 200">
  <circle cx="10" cy="10" r="2" fill="rgba(16,185,129,0.15)"/>
  <circle cx="30" cy="10" r="2" fill="rgba(16,185,129,0.15)"/>
  <circle cx="50" cy="10" r="2" fill="rgba(16,185,129,0.15)"/>
  <circle cx="70" cy="10" r="2" fill="rgba(16,185,129,0.15)"/>
  <circle cx="90" cy="10" r="2" fill="rgba(16,185,129,0.15)"/>
  <circle cx="110" cy="10" r="2" fill="rgba(16,185,129,0.15)"/>
  <circle cx="130" cy="10" r="2" fill="rgba(16,185,129,0.15)"/>
  <circle cx="150" cy="10" r="2" fill="rgba(16,185,129,0.15)"/>
  <circle cx="170" cy="10" r="2" fill="rgba(16,185,129,0.15)"/>
  <circle cx="190" cy="10" r="2" fill="rgba(16,185,129,0.15)"/>
  <circle cx="20" cy="30" r="2" fill="rgba(16,185,129,0.15)"/>
  <circle cx="40" cy="30" r="2" fill="rgba(16,185,129,0.15)"/>
  <circle cx="60" cy="30" r="2" fill="rgba(16,185,129,0.15)"/>
  <circle cx="80" cy="30" r="2" fill="rgba(16,185,129,0.15)"/>
  <circle cx="100" cy="30" r="2" fill="rgba(16,185,129,0.15)"/>
  <circle cx="120" cy="30" r="2" fill="rgba(16,185,129,0.15)"/>
  <circle cx="140" cy="30" r="2" fill="rgba(16,185,129,0.15)"/>
  <circle cx="160" cy="30" r="2" fill="rgba(16,185,129,0.15)"/>
  <circle cx="180" cy="30" r="2" fill="rgba(16,185,129,0.15)"/>
  <circle cx="10" cy="50" r="2" fill="rgba(16,185,129,0.15)"/>
  <circle cx="30" cy="50" r="2" fill="rgba(16,185,129,0.15)"/>
  <circle cx="50" cy="50" r="2" fill="rgba(16,185,129,0.15)"/>
  <circle cx="70" cy="50" r="2" fill="rgba(16,185,129,0.15)"/>
  <circle cx="90" cy="50" r="2" fill="rgba(16,185,129,0.15)"/>
  <circle cx="110" cy="50" r="2" fill="rgba(16,185,129,0.15)"/>
  <circle cx="130" cy="50" r="2" fill="rgba(16,185,129,0.15)"/>
  <circle cx="150" cy="50" r="2" fill="rgba(16,185,129,0.15)"/>
  <circle cx="170" cy="50" r="2" fill="rgba(16,185,129,0.15)"/>
  <circle cx="190" cy="50" r="2" fill="rgba(16,185,129,0.15)"/>
  <circle cx="20" cy="70" r="2" fill="rgba(16,185,129,0.15)"/>
  <circle cx="40" cy="70" r="2" fill="rgba(16,185,129,0.15)"/>
  <circle cx="60" cy="70" r="2" fill="rgba(16,185,129,0.15)"/>
  <circle cx="80" cy="70" r="2" fill="rgba(16,185,129,0.15)"/>
  <circle cx="100" cy="70" r="2" fill="rgba(16,185,129,0.15)"/>
  <circle cx="120" cy="70" r="2" fill="rgba(16,185,129,0.15)"/>
  <circle cx="140" cy="70" r="2" fill="rgba(16,185,129,0.15)"/>
  <circle cx="160" cy="70" r="2" fill="rgba(16,185,129,0.15)"/>
  <circle cx="180" cy="70" r="2" fill="rgba(16,185,129,0.15)"/>
  <circle cx="10" cy="90" r="2" fill="rgba(16,185,129,0.15)"/>
  <circle cx="30" cy="90" r="2" fill="rgba(16,185,129,0.15)"/>
  <circle cx="50" cy="90" r="2" fill="rgba(16,185,129,0.15)"/>
  <circle cx="70" cy="90" r="2" fill="rgba(16,185,129,0.15)"/>
  <circle cx="90" cy="90" r="2" fill="rgba(16,185,129,0.15)"/>
  <circle cx="110" cy="90" r="2" fill="rgba(16,185,129,0.15)"/>
  <circle cx="130" cy="90" r="2" fill="rgba(16,185,129,0.15)"/>
  <circle cx="150" cy="90" r="2" fill="rgba(16,185,129,0.15)"/>
  <circle cx="170" cy="90" r="2" fill="rgba(16,185,129,0.15)"/>
  <circle cx="190" cy="90" r="2" fill="rgba(16,185,129,0.15)"/>
  <circle cx="20" cy="110" r="2" fill="rgba(16,185,129,0.15)"/>
  <circle cx="40" cy="110" r="2" fill="rgba(16,185,129,0.15)"/>
  <circle cx="60" cy="110" r="2" fill="rgba(16,185,129,0.15)"/>
  <circle cx="80" cy="110" r="2" fill="rgba(16,185,129,0.15)"/>
  <circle cx="100" cy="110" r="2" fill="rgba(16,185,129,0.15)"/>
  <circle cx="120" cy="110" r="2" fill="rgba(16,185,129,0.15)"/>
  <circle cx="140" cy="110" r="2" fill="rgba(16,185,129,0.15)"/>
  <circle cx="160" cy="110" r="2" fill="rgba(16,185,129,0.15)"/>
  <circle cx="180" cy="110" r="2" fill="rgba(16,185,129,0.15)"/>
  <circle cx="10" cy="130" r="2" fill="rgba(16,185,129,0.15)"/>
  <circle cx="30" cy="130" r="2" fill="rgba(16,185,129,0.15)"/>
  <circle cx="50" cy="130" r="2" fill="rgba(16,185,129,0.15)"/>
  <circle cx="70" cy="130" r="2" fill="rgba(16,185,129,0.15)"/>
  <circle cx="90" cy="130" r="2" fill="rgba(16,185,129,0.15)"/>
  <circle cx="110" cy="130" r="2" fill="rgba(16,185,129,0.15)"/>
  <circle cx="130" cy="130" r="2" fill="rgba(16,185,129,0.15)"/>
  <circle cx="150" cy="130" r="2" fill="rgba(16,185,129,0.15)"/>
  <circle cx="170" cy="130" r="2" fill="rgba(16,185,129,0.15)"/>
  <circle cx="190" cy="130" r="2" fill="rgba(16,185,129,0.15)"/>
  <circle cx="20" cy="150" r="2" fill="rgba(16,185,129,0.15)"/>
  <circle cx="40" cy="150" r="2" fill="rgba(16,185,129,0.15)"/>
  <circle cx="60" cy="150" r="2" fill="rgba(16,185,129,0.15)"/>
  <circle cx="80" cy="150" r="2" fill="rgba(16,185,129,0.15)"/>
  <circle cx="100" cy="150" r="2" fill="rgba(16,185,129,0.15)"/>
  <circle cx="120" cy="150" r="2" fill="rgba(16,185,129,0.15)"/>
  <circle cx="140" cy="150" r="2" fill="rgba(16,185,129,0.15)"/>
  <circle cx="160" cy="150" r="2" fill="rgba(16,185,129,0.15)"/>
  <circle cx="180" cy="150" r="2" fill="rgba(16,185,129,0.15)"/>
  <circle cx="10" cy="170" r="2" fill="rgba(16,185,129,0.15)"/>
  <circle cx="30" cy="170" r="2" fill="rgba(16,185,129,0.15)"/>
  <circle cx="50" cy="170" r="2" fill="rgba(16,185,129,0.15)"/>
  <circle cx="70" cy="170" r="2" fill="rgba(16,185,129,0.15)"/>
  <circle cx="90" cy="170" r="2" fill="rgba(16,185,129,0.15)"/>
  <circle cx="110" cy="170" r="2" fill="rgba(16,185,129,0.15)"/>
  <circle cx="130" cy="170" r="2" fill="rgba(16,185,129,0.15)"/>
  <circle cx="150" cy="170" r="2" fill="rgba(16,185,129,0.15)"/>
  <circle cx="170" cy="170" r="2" fill="rgba(16,185,129,0.15)"/>
  <circle cx="190" cy="170" r="2" fill="rgba(16,185,129,0.15)"/>
  <circle cx="20" cy="190" r="2" fill="rgba(16,185,129,0.15)"/>
  <circle cx="40" cy="190" r="2" fill="rgba(16,185,129,0.15)"/>
  <circle cx="60" cy="190" r="2" fill="rgba(16,185,129,0.15)"/>
  <circle cx="80" cy="190" r="2" fill="rgba(16,185,129,0.15)"/>
  <circle cx="100" cy="190" r="2" fill="rgba(16,185,129,0.15)"/>
  <circle cx="120" cy="190" r="2" fill="rgba(16,185,129,0.15)"/>
  <circle cx="140" cy="190" r="2" fill="rgba(16,185,129,0.15)"/>
  <circle cx="160" cy="190" r="2" fill="rgba(16,185,129,0.15)"/>
  <circle cx="180" cy="190" r="2" fill="rgba(16,185,129,0.15)"/>
</svg>
